<?xml version="1.0" encoding="UTF-8" standalone="no"?>
<!-- Generator: Adobe Illustrator 19.1.0, SVG Export Plug-In . SVG Version: 6.00 Build 0)  -->

<svg
   xmlns:dc="http://purl.org/dc/elements/1.1/"
   xmlns:cc="http://creativecommons.org/ns#"
   xmlns:rdf="http://www.w3.org/1999/02/22-rdf-syntax-ns#"
   xmlns:svg="http://www.w3.org/2000/svg"
   xmlns="http://www.w3.org/2000/svg"
   xmlns:sodipodi="http://sodipodi.sourceforge.net/DTD/sodipodi-0.dtd"
   xmlns:inkscape="http://www.inkscape.org/namespaces/inkscape"
   version="1.1"
   id="road-icon"
   x="0px"
   y="0px"
   viewBox="-255 447 72 72"
   style="enable-background:new -255 447 72 72;"
   xml:space="preserve"
   inkscape:version="0.91 r13725"
   sodipodi:docname="PreMission.svg"><metadata
     id="metadata27"><rdf:RDF><cc:Work
         rdf:about=""><dc:format>image/svg+xml</dc:format><dc:type
           rdf:resource="http://purl.org/dc/dcmitype/StillImage" /></cc:Work></rdf:RDF></metadata><defs
     id="defs25" /><sodipodi:namedview
     pagecolor="#ffffff"
     bordercolor="#666666"
     borderopacity="1"
     objecttolerance="10"
     gridtolerance="10"
     guidetolerance="10"
     inkscape:pageopacity="0"
     inkscape:pageshadow="2"
     inkscape:window-width="1366"
     inkscape:window-height="705"
     id="namedview23"
     showgrid="false"
     inkscape:zoom="3.2777778"
     inkscape:cx="36"
     inkscape:cy="36"
     inkscape:window-x="-8"
     inkscape:window-y="-8"
     inkscape:window-maximized="1"
     inkscape:current-layer="road-icon" /><style
     type="text/css"
     id="style3">
	.st0{fill:#FFFFFF;}
	.st1{fill:#FFFFFF;stroke:#FFFFFF;stroke-width:9;stroke-linecap:round;stroke-miterlimit:10;}
</style><g
     id="g5"><polygon
       class="st0"
       points="-246.5,455.1 -247.5,457.1 -245.5,457.1 -246.5,455.1  "
       id="polygon7" /><path
       class="st0"
       d="M-246.5,447c-4.7,0-8.5,3.8-8.5,8.5c0,5.8,7.7,15.6,8,16c0.1,0.2,0.3,0.3,0.5,0.3h0c0.2,0,0.4-0.1,0.5-0.3   c0.3-0.4,7.9-10.3,7.9-16C-238,450.8-241.8,447-246.5,447z M-242.5,460.1h-1.4c-0.2,0-0.3-0.1-0.4-0.3l-0.5-1h-3.4l-0.5,1   c-0.1,0.2-0.2,0.3-0.5,0.3h-1.4c-0.2,0-0.3-0.2-0.2-0.3l3.9-8.5c0-0.1,0.1-0.1,0.2-0.1h0.1c0.1,0,0.2,0.1,0.2,0.1l3.9,8.5   C-242.2,460-242.3,460.1-242.5,460.1z"
       id="path9" /></g><g
     id="g11"><path
       class="st0"
       d="M-197.7,466.4c-8,0-14.6,6.6-14.6,14.6c0,9.9,13.2,26.8,13.7,27.5c0.2,0.3,0.6,0.4,0.9,0.4c0,0,0,0,0,0   c0.4,0,0.7-0.2,0.9-0.4c0.6-0.7,13.6-17.6,13.6-27.5C-183.1,473-189.6,466.4-197.7,466.4z M-197.2,488.7h-5.3   c-0.2,0-0.4-0.2-0.4-0.4V474c0-0.2,0.2-0.4,0.4-0.4h5c2.5,0,4.6,1.7,4.6,4c0,1.7-1.5,2.9-2.5,3.4c1.1,0.5,2.9,1.5,2.9,3.5   C-192.5,486.9-194.6,488.7-197.2,488.7z"
       id="path13" /><path
       class="st0"
       d="M-197.8,482.5h-1.7v3.1h2c0.8,0,1.5-0.7,1.5-1.6C-196,483.2-197,482.5-197.8,482.5z"
       id="path15" /><path
       class="st0"
       d="M-196.4,478.2c0-0.9-0.7-1.5-1.5-1.5h-1.7v3h1.7C-197,479.7-196.4,479-196.4,478.2z"
       id="path17" /></g><path
     class="st1"
     d="M-189.8,480"
     id="path19" /><path
     class="st0"
     d="M-197.3,512.5l-38.9-21.3l9-4.8c0.9-0.5,1.4-1.5,1.3-2.5c-0.1-1-0.7-1.9-1.6-2.4c0,0-16.1-7.2-17.2-7.7  c-0.8-0.3-1.9-0.3-2.3-0.2c-1.2,0.3-2,1-2,1.8c0,1.2,2.1,1.9,2.4,2.1l15.3,6.7l-11.3,4.7c-0.9,0.5-1.4,1.5-1.3,2.5  c0,1,0.6,1.9,1.5,2.4l39.3,23.6c1.3,0.6,2.8,1.7,5.1,1.7c0.2,0,0.4,0,0.6,0c0,0,0,0,0.1,0c0.3,0,0.5,0,0.8-0.1  c1.9-0.4,3.3-1.5,3.3-2.8C-193.2,514.6-195,513.7-197.3,512.5z"
     id="path21" /><text
     xml:space="preserve"
     style="font-style:italic;font-variant:normal;font-weight:bold;font-stretch:normal;font-size:56.61663437px;line-height:125%;font-family:Calibri;-inkscape-font-specification:'Calibri Bold Italic';letter-spacing:0px;word-spacing:0px;fill:#ffffff;fill-opacity:1;stroke:none;stroke-width:1px;stroke-linecap:butt;stroke-linejoin:miter;stroke-opacity:1"
     x="-211.82419"
     y="537.63483"
     id="text3355"
     sodipodi:linespacing="125%"
     transform="scale(1.1216384,0.89155293)"><tspan
       sodipodi:role="line"
       id="tspan3357"
       x="-211.82419"
       y="537.63483">S</tspan></text>
</svg>